<?xml version="1.0" encoding="UTF-8" standalone="no"?>
<svg
   xmlns:dc="http://purl.org/dc/elements/1.1/"
   xmlns:cc="http://creativecommons.org/ns#"
   xmlns:rdf="http://www.w3.org/1999/02/22-rdf-syntax-ns#"
   xmlns:svg="http://www.w3.org/2000/svg"
   xmlns="http://www.w3.org/2000/svg"
   xmlns:sodipodi="http://sodipodi.sourceforge.net/DTD/sodipodi-0.dtd"
   xmlns:inkscape="http://www.inkscape.org/namespaces/inkscape"
   version="1.1"
   viewBox="0 0 175.53051 189.54748"
   stroke-miterlimit="10"
   id="svg27"
   inkscape:version="0.91 r13725"
   sodipodi:docname="lll3.svg"
   width="175.5305"
   height="189.54749"
   style="fill:none;stroke:none;stroke-linecap:square;stroke-miterlimit:10">
  <metadata
     id="metadata72">
    <rdf:RDF>
      <cc:Work
         rdf:about="">
        <dc:format>image/svg+xml</dc:format>
        <dc:type
           rdf:resource="http://purl.org/dc/dcmitype/StillImage" />
        <dc:title></dc:title>
      </cc:Work>
    </rdf:RDF>
  </metadata>
  <defs
     id="defs70">
    <filter
       style="color-interpolation-filters:sRGB"
       inkscape:label="Drop Shadow"
       id="filter3891">
      <feFlood
         flood-opacity="0.498039"
         flood-color="rgb(0,0,0)"
         result="flood"
         id="feFlood3893" />
      <feComposite
         in="flood"
         in2="SourceGraphic"
         operator="in"
         result="composite1"
         id="feComposite3895" />
      <feGaussianBlur
         in="composite1"
         stdDeviation="4"
         result="blur"
         id="feGaussianBlur3897" />
      <feOffset
         dx="6"
         dy="6"
         result="offset"
         id="feOffset3899" />
      <feComposite
         in="SourceGraphic"
         in2="offset"
         operator="over"
         result="composite2"
         id="feComposite3901" />
    </filter>
  </defs>
  <sodipodi:namedview
     pagecolor="#ffffff"
     bordercolor="#666666"
     borderopacity="1"
     objecttolerance="10"
     gridtolerance="10"
     guidetolerance="10"
     inkscape:pageopacity="0"
     inkscape:pageshadow="2"
     inkscape:window-width="1250"
     inkscape:window-height="678"
     id="namedview68"
     showgrid="false"
     inkscape:zoom="0.8"
     inkscape:cx="125.43285"
     inkscape:cy="76.671008"
     inkscape:window-x="19"
     inkscape:window-y="0"
     inkscape:window-maximized="0"
     inkscape:current-layer="svg27"
     fit-margin-top="0"
     fit-margin-left="0"
     fit-margin-right="0"
     fit-margin-bottom="0"
     showborder="false" />
  <clipPath
     id="gcbf9cd132_0_23.0">
    <path
       d="M 0,0 960,0 960,540 0,540 0,0 Z"
       id="path30"
       inkscape:connector-curvature="0"
       style="clip-rule:nonzero" />
  </clipPath>
  <g
     id="g3401"
     style="filter:url(#filter3891)"
     transform="translate(14.627794,15.795734)">
    <path
       d="m 42.46406,118.88989 -6.39063,0 32,-41.59375 -17.92187,-26.25 q -1.67188,-2.42187 -3.46875,-4.79687 -1.78125,-2.375 -4.09375,-4.34375 -2.29688,-1.98438 -5.4375,-3.32813 -3.125,-1.34375 -7.48438,-1.60937 l 0,-2.5625 15.35938,0 q 3.07812,0 5.70312,1.28125 2.625,1.28125 4.79688,3.32812 2.17187,2.04688 3.96875,4.54688 1.79687,2.5 3.45312,4.92187 l 12.79688,19.20313 25.60937,-33.28125 6.39063,0 -28.79688,37.76562 20.48438,30.07813 q 1.65625,2.4375 3.57812,4.8125 1.92188,2.35937 4.21875,4.34375 2.3125,1.98437 5,3.32812 2.6875,1.34375 5.76563,1.59375 l 0,2.5625 -13.4375,0 q -3.07813,0 -5.70313,-1.28125 -2.625,-1.28125 -4.79687,-3.32812 -2.17188,-2.04688 -4.03125,-4.53125 -1.85938,-2.5 -3.39063,-4.9375 l -15.35937,-23.04688 -28.8125,37.125 z"
       id="path38"
       inkscape:connector-curvature="0"
       style="fill:#eef077;fill-rule:nonzero" />
    <path
       inkscape:connector-curvature="0"
       id="path60"
       d="m 3.0136719,100.99023 a 3.0003,3.0003 0 0 0 -2.88476565,3.8711 C 8.3887672,133.56611 36.116857,153.4689 64.304688,157.6875 a 3.0003,3.0003 0 0 0 3.15625,-5.04102 l -0.07227,-0.0625 a 3.0003,3.0003 0 0 0 -1.527344,-0.68554 C 39.648712,148.22868 13.425678,129.37547 5.8945312,103.20312 a 3.0003,3.0003 0 0 0 -2.8808593,-2.21289 z"
       style="color:#000000;font-style:normal;font-variant:normal;font-weight:normal;font-stretch:normal;font-size:medium;line-height:normal;font-family:sans-serif;text-indent:0;text-align:start;text-decoration:none;text-decoration-line:none;text-decoration-style:solid;text-decoration-color:#000000;letter-spacing:normal;word-spacing:normal;text-transform:none;direction:ltr;block-progression:tb;writing-mode:lr-tb;baseline-shift:baseline;text-anchor:start;white-space:normal;clip-rule:nonzero;display:inline;overflow:visible;visibility:visible;opacity:1;isolation:auto;mix-blend-mode:normal;color-interpolation:sRGB;color-interpolation-filters:linearRGB;solid-color:#000000;solid-opacity:1;fill:#eef077;fill-opacity:1;fill-rule:nonzero;stroke:none;stroke-width:6;stroke-linecap:round;stroke-linejoin:round;stroke-miterlimit:10;stroke-dasharray:none;stroke-dashoffset:0;stroke-opacity:1;color-rendering:auto;image-rendering:auto;shape-rendering:auto;text-rendering:auto;enable-background:accumulate" />
    <path
       inkscape:connector-curvature="0"
       id="path66"
       d="m 78.611328,0 0,6 -0.152344,-0.00391 c 16.538807,0.8431778 31.051586,9.001927 41.953126,20.041015 10.90154,11.039088 18.0666,24.969816 19.89844,36.585938 A 3.0005512,3.0005512 0 1 0 146.23828,61.6875 C 144.15249,48.461032 136.41689,33.703632 124.68164,21.820312 113.0338,10.025511 97.31568,1.0930019 79.166016,0.046875 A 3.0003,3.0003 0 0 0 78.611328,0 Z"
       style="color:#000000;font-style:normal;font-variant:normal;font-weight:normal;font-stretch:normal;font-size:medium;line-height:normal;font-family:sans-serif;text-indent:0;text-align:start;text-decoration:none;text-decoration-line:none;text-decoration-style:solid;text-decoration-color:#000000;letter-spacing:normal;word-spacing:normal;text-transform:none;direction:ltr;block-progression:tb;writing-mode:lr-tb;baseline-shift:baseline;text-anchor:start;white-space:normal;clip-rule:nonzero;display:inline;overflow:visible;visibility:visible;opacity:1;isolation:auto;mix-blend-mode:normal;color-interpolation:sRGB;color-interpolation-filters:linearRGB;solid-color:#000000;solid-opacity:1;fill:#eef077;fill-opacity:1;fill-rule:nonzero;stroke:none;stroke-width:6;stroke-linecap:round;stroke-linejoin:round;stroke-miterlimit:10;stroke-dasharray:none;stroke-dashoffset:0;stroke-opacity:1;color-rendering:auto;image-rendering:auto;shape-rendering:auto;text-rendering:auto;enable-background:accumulate" />
  </g>
</svg>
